<mxfile host="65bd71144e">
    <diagram id="ibclJAmA8I--RAdwGYUa" name="Page-1">
        <mxGraphModel dx="231" dy="161" grid="0" gridSize="10" guides="1" tooltips="1" connect="1" arrows="1" fold="1" page="1" pageScale="1" pageWidth="850" pageHeight="1100" background="#ffffff" math="0" shadow="0">
            <root>
                <mxCell id="0"/>
                <mxCell id="1" parent="0"/>
                <mxCell id="26" style="edgeStyle=none;html=1;entryX=0;entryY=0.5;entryDx=0;entryDy=0;exitX=1;exitY=0.3333333333333333;exitDx=0;exitDy=0;exitPerimeter=0;fillColor=#f5f5f5;strokeColor=#666666;" parent="1" source="2" target="5" edge="1">
                    <mxGeometry relative="1" as="geometry"/>
                </mxCell>
                <mxCell id="58" style="edgeStyle=none;html=1;entryX=0;entryY=0;entryDx=0;entryDy=0;fillColor=#f5f5f5;strokeColor=#666666;" parent="1" target="6" edge="1">
                    <mxGeometry relative="1" as="geometry">
                        <mxPoint x="160" y="412" as="sourcePoint"/>
                    </mxGeometry>
                </mxCell>
                <mxCell id="59" style="edgeStyle=none;html=1;fillColor=#f5f5f5;strokeColor=#666666;" parent="1" source="2" edge="1">
                    <mxGeometry relative="1" as="geometry">
                        <mxPoint x="240" y="640" as="targetPoint"/>
                        <Array as="points">
                            <mxPoint x="130" y="510"/>
                            <mxPoint x="130" y="540"/>
                            <mxPoint x="130" y="640"/>
                            <mxPoint x="170" y="640"/>
                        </Array>
                    </mxGeometry>
                </mxCell>
                <mxCell id="60" style="edgeStyle=none;html=1;entryX=0;entryY=0.5;entryDx=0;entryDy=0;fillColor=#f5f5f5;strokeColor=#666666;exitX=0.5;exitY=0.67;exitDx=0;exitDy=0;exitPerimeter=0;" parent="1" source="2" target="7" edge="1">
                    <mxGeometry relative="1" as="geometry">
                        <Array as="points">
                            <mxPoint x="130" y="540"/>
                        </Array>
                    </mxGeometry>
                </mxCell>
                <mxCell id="2" value="Tracker" style="shape=umlActor;verticalLabelPosition=bottom;verticalAlign=top;html=1;outlineConnect=0;fillColor=#f5f5f5;fontColor=#333333;strokeColor=#666666;" parent="1" vertex="1">
                    <mxGeometry x="100" y="370" width="60" height="80" as="geometry"/>
                </mxCell>
                <mxCell id="34" style="edgeStyle=none;html=1;entryX=1;entryY=0.5;entryDx=0;entryDy=0;fillColor=#f5f5f5;strokeColor=#666666;" parent="1" target="30" edge="1">
                    <mxGeometry relative="1" as="geometry">
                        <mxPoint x="680" y="420" as="sourcePoint"/>
                    </mxGeometry>
                </mxCell>
                <mxCell id="36" style="edgeStyle=none;html=1;entryX=1;entryY=0.5;entryDx=0;entryDy=0;fillColor=#f5f5f5;strokeColor=#666666;" parent="1" target="44" edge="1">
                    <mxGeometry relative="1" as="geometry">
                        <mxPoint x="760" y="540" as="targetPoint"/>
                        <mxPoint x="680" y="360" as="sourcePoint"/>
                    </mxGeometry>
                </mxCell>
                <mxCell id="37" style="edgeStyle=none;html=1;entryX=1;entryY=0.5;entryDx=0;entryDy=0;exitX=0;exitY=1;exitDx=0;exitDy=0;exitPerimeter=0;fillColor=#f5f5f5;strokeColor=#666666;" parent="1" source="3" target="10" edge="1">
                    <mxGeometry relative="1" as="geometry"/>
                </mxCell>
                <mxCell id="3" value="Node" style="shape=umlActor;verticalLabelPosition=bottom;verticalAlign=top;html=1;outlineConnect=0;fillColor=#f5f5f5;fontColor=#333333;strokeColor=#666666;" parent="1" vertex="1">
                    <mxGeometry x="690" y="360" width="60" height="80" as="geometry"/>
                </mxCell>
                <mxCell id="4" value="Manage Metadata" style="ellipse;whiteSpace=wrap;html=1;fillColor=#ffe6cc;strokeColor=#d79b00;fontColor=#000000;" parent="1" vertex="1">
                    <mxGeometry x="240" y="200" width="160" height="80" as="geometry"/>
                </mxCell>
                <mxCell id="5" value="Process Node Requests" style="ellipse;whiteSpace=wrap;html=1;fillColor=#ffe6cc;strokeColor=#d79b00;fontColor=#000000;" parent="1" vertex="1">
                    <mxGeometry x="240" y="300" width="160" height="80" as="geometry"/>
                </mxCell>
                <mxCell id="6" value="Return Peer List" style="ellipse;whiteSpace=wrap;html=1;fillColor=#ffe6cc;strokeColor=#d79b00;fontColor=#000000;" parent="1" vertex="1">
                    <mxGeometry x="240" y="400" width="160" height="80" as="geometry"/>
                </mxCell>
                <mxCell id="7" value="Monitor Download" style="ellipse;whiteSpace=wrap;html=1;fillColor=#ffe6cc;strokeColor=#d79b00;fontColor=#000000;" parent="1" vertex="1">
                    <mxGeometry x="240" y="500" width="160" height="80" as="geometry"/>
                </mxCell>
                <mxCell id="42" style="edgeStyle=none;html=1;fillColor=#f5f5f5;strokeColor=#666666;" parent="1" source="8" target="2" edge="1">
                    <mxGeometry relative="1" as="geometry">
                        <mxPoint x="110" y="120" as="targetPoint"/>
                        <Array as="points">
                            <mxPoint x="560" y="120"/>
                            <mxPoint x="160" y="120"/>
                            <mxPoint x="130" y="120"/>
                        </Array>
                    </mxGeometry>
                </mxCell>
                <mxCell id="8" value="Send Metadata to Tracker" style="ellipse;whiteSpace=wrap;html=1;fillColor=#ffe6cc;strokeColor=#d79b00;fontColor=#000000;" parent="1" vertex="1">
                    <mxGeometry x="480" y="185" width="160" height="80" as="geometry"/>
                </mxCell>
                <mxCell id="10" value="Share File as Seeder" style="ellipse;whiteSpace=wrap;html=1;fillColor=#ffe6cc;strokeColor=#d79b00;fontColor=#000000;" parent="1" vertex="1">
                    <mxGeometry x="480" y="510" width="160" height="80" as="geometry"/>
                </mxCell>
                <mxCell id="12" style="edgeStyle=none;html=1;entryX=0;entryY=0.5;entryDx=0;entryDy=0;exitX=0.75;exitY=0.1;exitDx=0;exitDy=0;exitPerimeter=0;fillColor=#f5f5f5;strokeColor=#666666;" parent="1" source="2" target="4" edge="1">
                    <mxGeometry relative="1" as="geometry"/>
                </mxCell>
                <mxCell id="30" value="Download file from peers" style="ellipse;whiteSpace=wrap;html=1;fillColor=#ffe6cc;strokeColor=#d79b00;fontColor=#000000;" parent="1" vertex="1">
                    <mxGeometry x="480" y="400" width="160" height="80" as="geometry"/>
                </mxCell>
                <mxCell id="69" style="edgeStyle=none;html=1;exitX=0.5;exitY=0;exitDx=0;exitDy=0;entryX=0.5;entryY=1;entryDx=0;entryDy=0;dashed=1;fillColor=#a20025;strokeColor=#6F0000;" parent="1" source="44" target="8" edge="1">
                    <mxGeometry relative="1" as="geometry"/>
                </mxCell>
                <mxCell id="44" value="Request Tracker for file assembly&amp;nbsp;" style="ellipse;whiteSpace=wrap;html=1;fillColor=#ffe6cc;strokeColor=#d79b00;fontColor=#000000;" parent="1" vertex="1">
                    <mxGeometry x="480" y="300" width="160" height="80" as="geometry"/>
                </mxCell>
                <mxCell id="50" value="Monitor Seeding" style="ellipse;whiteSpace=wrap;html=1;fillColor=#ffe6cc;strokeColor=#d79b00;fontColor=#000000;" parent="1" vertex="1">
                    <mxGeometry x="240" y="600" width="160" height="80" as="geometry"/>
                </mxCell>
                <mxCell id="61" value="" style="endArrow=none;dashed=1;html=1;strokeWidth=2;entryX=0;entryY=0.5;entryDx=0;entryDy=0;dashPattern=1 2;fillColor=#f5f5f5;strokeColor=#666666;" parent="1" target="6" edge="1">
                    <mxGeometry width="50" height="50" relative="1" as="geometry">
                        <mxPoint x="240" y="640" as="sourcePoint"/>
                        <mxPoint x="390" y="450" as="targetPoint"/>
                        <Array as="points">
                            <mxPoint x="240" y="640"/>
                            <mxPoint x="200" y="640"/>
                            <mxPoint x="200" y="440"/>
                        </Array>
                    </mxGeometry>
                </mxCell>
                <mxCell id="62" value="" style="endArrow=none;html=1;strokeWidth=2;exitX=0;exitY=0.5;exitDx=0;exitDy=0;dashed=1;entryX=0;entryY=0.5;entryDx=0;entryDy=0;dashPattern=1 1;fillColor=#f5f5f5;strokeColor=#666666;" parent="1" source="7" target="6" edge="1">
                    <mxGeometry width="50" height="50" relative="1" as="geometry">
                        <mxPoint x="220" y="640" as="sourcePoint"/>
                        <mxPoint x="210" y="440" as="targetPoint"/>
                        <Array as="points">
                            <mxPoint x="200" y="540"/>
                            <mxPoint x="200" y="440"/>
                        </Array>
                    </mxGeometry>
                </mxCell>
                <mxCell id="70" value="&amp;lt;&amp;lt;Include&amp;gt;&amp;gt;" style="text;html=1;align=center;verticalAlign=middle;resizable=0;points=[];autosize=1;fillColor=none;fontColor=#333333;strokeColor=none;" parent="1" vertex="1">
                    <mxGeometry x="553" y="268" width="90" height="30" as="geometry"/>
                </mxCell>
                <mxCell id="72" value="&amp;lt;&amp;lt;Include&amp;gt;&amp;gt;" style="text;html=1;align=center;verticalAlign=middle;resizable=0;points=[];autosize=1;fillColor=none;fontColor=#333333;strokeColor=none;" vertex="1" parent="1">
                    <mxGeometry x="200" y="480" width="90" height="30" as="geometry"/>
                </mxCell>
                <mxCell id="73" value="&amp;lt;&amp;lt;Include&amp;gt;&amp;gt;" style="text;html=1;align=center;verticalAlign=middle;resizable=0;points=[];autosize=1;fillColor=none;fontColor=#333333;strokeColor=none;" vertex="1" parent="1">
                    <mxGeometry x="200" y="576" width="90" height="30" as="geometry"/>
                </mxCell>
                <mxCell id="74" style="edgeStyle=none;html=1;exitX=0.5;exitY=0;exitDx=0;exitDy=0;exitPerimeter=0;entryX=0.75;entryY=0.1;entryDx=0;entryDy=0;entryPerimeter=0;" edge="1" parent="1" source="2" target="2">
                    <mxGeometry relative="1" as="geometry"/>
                </mxCell>
            </root>
        </mxGraphModel>
    </diagram>
</mxfile>